<?xml version="1.0" encoding="UTF-8"?>
<svg xmlns="http://www.w3.org/2000/svg" xmlns:xlink="http://www.w3.org/1999/xlink" width="30pt" height="24pt" viewBox="0 0 30 24" version="1.1">
<g id="surface1">
<path style=" stroke:none;fill-rule:nonzero;fill:rgb(16.862745%,74.117647%,96.862745%);fill-opacity:1;" d="M 11.613281 9.9375 L 14.953125 17.441406 L 19.914062 14.535156 L 19.921875 14.535156 L 19.921875 8.722656 Z M 11.613281 9.9375 "/>
<path style=" stroke:none;fill-rule:nonzero;fill:rgb(15.686275%,56.862745%,97.647059%);fill-opacity:1;" d="M 26.328125 4.359375 L 23.234375 3.179688 L 19.921875 2.90625 L 19.921875 21.023438 L 24.890625 23.933594 L 28.847656 15.742188 L 26.335938 7.859375 Z M 26.328125 4.359375 "/>
<path style=" stroke:none;fill-rule:nonzero;fill:rgb(16.862745%,74.117647%,96.862745%);fill-opacity:1;" d="M 26.039062 2.90625 L 24.890625 5.816406 L 24.890625 23.886719 L 29.855469 20.980469 L 29.855469 2.90625 Z M 26.039062 2.90625 "/>
<path style=" stroke:none;fill-rule:nonzero;fill:rgb(16.862745%,42.745098%,93.72549%);fill-opacity:1;" d="M 24.890625 0 L 19.921875 2.90625 L 24.890625 5.816406 L 29.855469 2.90625 Z M 24.890625 0 "/>
<path style=" stroke:none;fill-rule:nonzero;fill:rgb(15.686275%,56.862745%,97.647059%);fill-opacity:1;" d="M 14.953125 11.625 L 9.984375 5.976562 L 0.046875 2.90625 L 0.046875 20.980469 L 5.015625 23.886719 L 6.4375 13.886719 L 9.984375 14.535156 L 14.953125 17.441406 Z M 14.953125 11.625 "/>
<path style=" stroke:none;fill-rule:nonzero;fill:rgb(16.862745%,42.745098%,93.72549%);fill-opacity:1;" d="M 5.015625 0 L 0.046875 2.90625 L 14.953125 11.625 L 17.203125 10.3125 L 19.921875 8.722656 Z M 5.015625 0 "/>
<path style=" stroke:none;fill-rule:nonzero;fill:rgb(16.862745%,74.117647%,96.862745%);fill-opacity:1;" d="M 5.015625 11.625 L 5.015625 23.886719 L 9.984375 20.980469 L 9.984375 14.535156 Z M 5.015625 11.625 "/>
</g>
</svg>
